<?xml version="1.0" encoding="UTF-8" standalone="no"?>
<svg width="29px" height="27px" viewBox="0 0 29 27" version="1.1" xmlns="http://www.w3.org/2000/svg" xmlns:xlink="http://www.w3.org/1999/xlink">
    <!-- Generator: Sketch 43 (38999) - http://www.bohemiancoding.com/sketch -->
    <title>sanjiao_5</title>
    <desc>Created with Sketch.</desc>
    <defs></defs>
    <g id="Page-1" stroke="none" stroke-width="1" fill="none" fill-rule="evenodd">
        <path d="M24.2811222,20.6789211 C24.2878713,20.7850947 24.2912973,20.8921556 24.2912973,21 C24.2912973,23.7614237 22.0497187,26 19.2946115,26 L13.2879831,26 C10.8322296,26 8.79025313,24.2227849 8.37036753,21.8893493 C8.35517016,21.8645425 8.34044195,21.8392906 8.32620064,21.8135986 L4.25025477,14.4603976 C3.71733327,13.4989818 4.06174087,12.2892204 5.03455444,11.749981 C6.00063269,11.2144751 7.215718,11.5595736 7.7487336,12.5211592 L9.29129729,15.3040177 L9.29129729,1.99508929 C9.29129729,0.893231902 10.1790269,0 11.2912973,0 C12.3958668,0 13.2912973,0.892622799 13.2912973,1.99508929 L13.2912973,16 L13.2912973,16 L13.2912973,8.99508929 C13.2912973,7.8932319 14.1790269,7 15.2912973,7 C16.3958668,7 17.2912973,7.8926228 17.2912973,8.99508929 L17.2912973,13.4959421 L17.2912973,10.9918842 C17.2912973,9.89179693 18.1790269,9 19.2912973,9 C20.3958668,9 21.2912973,9.89339733 21.2912973,10.9918842 L21.2912973,14.9565522 L21.2912973,13.497101 C21.2912973,12.670275 21.9570945,12 22.7912973,12 C23.6197244,12 24.2912973,12.671656 24.2912973,13.497101 L24.2912973,20.502899 C24.2912973,20.562449 24.2878436,20.6211871 24.2811222,20.6789211 Z" id="Combined-Shape" fill="#505050"></path>
    </g>
</svg>